<svg width="32" height="32" viewBox="0 0 32 32" fill="none" xmlns="http://www.w3.org/2000/svg">
  <rect width="32" height="32" rx="7" fill="url(#grad)"/>
  <defs>
    <linearGradient id="grad" x1="0" y1="0" x2="32" y2="32" gradientUnits="userSpaceOnUse">
      <stop offset="0%" stop-color="#9B8BF8"/>
      <stop offset="100%" stop-color="#5B3FD4"/>
    </linearGradient>
  </defs>
  <!-- page shadow -->
  <path d="M20 26 Q25.5 25.5 26 21 L26 10 Q26 8 24 8 L14 8 Q12 8 12 10 L12 24 Q16 28 20 26Z" fill="#4A2FB0" opacity="0.5"/>
  <!-- main page -->
  <path d="M18.5 25 Q24 24.5 24.5 20 L24.5 8.5 Q24.5 6.5 22.5 6.5 L12.5 6.5 Q10.5 6.5 10.5 8.5 L10.5 22.5 Q14.5 27 18.5 25Z" fill="white"/>
  <!-- curl -->
  <path d="M10.5 22.5 Q10.5 27 14.5 27 Q14.5 27 10.5 22.5Z" fill="#C4B8F8" opacity="0.7"/>
  <!-- text lines -->
  <rect x="13" y="11" width="8" height="1.5" rx="0.75" fill="#A99EF0"/>
  <rect x="13" y="14.5" width="7.5" height="1.5" rx="0.75" fill="#A99EF0"/>
  <rect x="13" y="18" width="5.5" height="1.5" rx="0.75" fill="#A99EF0"/>
</svg>
